# xmcd
#
# Track frame offsets:
#	150
#	15220
#	33175
#	43777
#	55850
#	66190
#	82485
#	96975
#	111130
#	127040
#	143630
#	155757
#	167592
#	180360
#	199467
#
# Disc length: 2812
#
# Revision: 2
# Processed by: cddbd v1.5.1PL0 Copyright (c) Steve Scherf et al.
# Submitted via: audiograbber 1.80.04
# Normalized: r1:DSETVAR1
#
DISCID=ce0afa0f
DTITLE=Various Artist - Blues Story #20
DYEAR=1998
DGENRE=Blues
TTITLE0=Ray Charles - Drown In My Own Tears
TTITLE1=Dr John - New York City Blues
TTITLE2=Charles Brown - Please Don't Drive Me Away
TTITLE3=Otis Spann - Five Spot
TTITLE4=Floyd Dixon - 450 Pound Woman
TTITLE5=Albert Ammons - Boogie Woogie Stomp
TTITLE6=Meade Lux Lewis - Honky Tonk Train Blues
TTITLE7=Champion Jack Dupree - Nasty Boogie
TTITLE8=Leroy Carr - Blues Before Sunrise
TTITLE9=Johnny Neel - Bless My Soul
TTITLE10=Memphis Slim - Mother Earth
TTITLE11=Professor Longhair - Tipitina
TTITLE12=Big Joe Turner - Roll'em Pete
TTITLE13=Mike Bloomfield - Evesight To The Blind
TTITLE14=Amos Milburn - Trouble In Mind
EXTD=
EXTT0=
EXTT1=
EXTT2=
EXTT3=
EXTT4=
EXTT5=
EXTT6=
EXTT7=
EXTT8=
EXTT9=
EXTT10=
EXTT11=
EXTT12=
EXTT13=
EXTT14=
PLAYORDER=
